<svg width="420" height="260" viewBox="0 0 420 260" fill="none" xmlns="http://www.w3.org/2000/svg" role="img" aria-labelledby="title desc">
  <title id="title">Fitness antrenmanı illüstrasyonu</title>
  <desc id="desc">Koşu bandı, saat ve spor yapan kişi görseli.</desc>
  <rect width="420" height="260" rx="18" fill="#EAF4E8"/>
  <circle cx="322" cy="66" r="38" fill="#F0C46A"/>
  <rect x="42" y="177" width="260" height="18" rx="9" fill="#18231D"/>
  <rect x="70" y="196" width="38" height="14" rx="7" fill="#2F6FB7"/>
  <rect x="218" y="196" width="38" height="14" rx="7" fill="#DF6F57"/>
  <path d="M132 98c22-28 58-16 62 14l6 45" stroke="#2F9E5D" stroke-width="18" stroke-linecap="round"/>
  <path d="M205 154l44-18" stroke="#2F6FB7" stroke-width="18" stroke-linecap="round"/>
  <path d="M178 152l-38 24" stroke="#DF6F57" stroke-width="18" stroke-linecap="round"/>
  <path d="M168 117l-42 14" stroke="#18231D" stroke-width="12" stroke-linecap="round"/>
  <circle cx="178" cy="66" r="23" fill="#17201A"/>
  <path d="M256 96h82c10 0 18 8 18 18v44" stroke="#17201A" stroke-width="14" stroke-linecap="round"/>
  <path d="M298 126h32" stroke="#2F9E5D" stroke-width="10" stroke-linecap="round"/>
  <circle cx="346" cy="185" r="22" fill="#FFFFFF" stroke="#17201A" stroke-width="10"/>
  <circle cx="42" cy="58" r="16" fill="#57A9C7"/>
  <path d="M62 90h48M52 116h34" stroke="#B9CFB4" stroke-width="10" stroke-linecap="round"/>
</svg>
